<mxfile host="65bd71144e">
    <diagram id="1zVgO03YgL15PZYdM6fw" name="hl_architecture">
        <mxGraphModel dx="1374" dy="782" grid="1" gridSize="10" guides="1" tooltips="1" connect="1" arrows="1" fold="1" page="1" pageScale="1" pageWidth="827" pageHeight="1169" math="0" shadow="0">
            <root>
                <mxCell id="0"/>
                <mxCell id="1" parent="0"/>
                <mxCell id="22" style="edgeStyle=none;html=1;entryX=0.5;entryY=0;entryDx=0;entryDy=0;" edge="1" parent="1" source="3" target="20">
                    <mxGeometry relative="1" as="geometry"/>
                </mxCell>
                <mxCell id="3" value="User" style="shape=umlActor;verticalLabelPosition=bottom;verticalAlign=top;html=1;outlineConnect=0;" parent="1" vertex="1">
                    <mxGeometry x="385" y="50" width="30" height="60" as="geometry"/>
                </mxCell>
                <mxCell id="12" value="Web Server" style="swimlane;" vertex="1" parent="1">
                    <mxGeometry x="200" y="370" width="400" height="130" as="geometry"/>
                </mxCell>
                <mxCell id="13" value="Frontend&lt;span style=&quot;color: rgba(0 , 0 , 0 , 0) ; font-family: monospace ; font-size: 0px&quot;&gt;%3CmxGraphModel%3E%3Croot%3E%3CmxCell%20id%3D%220%22%2F%3E%3CmxCell%20id%3D%221%22%20parent%3D%220%22%2F%3E%3CmxCell%20id%3D%222%22%20value%3D%22Event%26lt%3Bbr%26gt%3B%26amp%3Blt%3B%26amp%3Blt%3BContract%26amp%3Bgt%3B%26amp%3Bgt%3B%22%20style%3D%22rounded%3D0%3BwhiteSpace%3Dwrap%3Bhtml%3D1%3B%22%20vertex%3D%221%22%20parent%3D%221%22%3E%3CmxGeometry%20x%3D%22340%22%20y%3D%22600%22%20width%3D%22120%22%20height%3D%2260%22%20as%3D%22geometry%22%2F%3E%3C%2FmxCell%3E%3C%2Froot%3E%3C%2FmxGraphModel%3E&lt;/span&gt;" style="rounded=0;whiteSpace=wrap;html=1;" vertex="1" parent="12">
                    <mxGeometry x="140" y="40" width="120" height="60" as="geometry"/>
                </mxCell>
                <mxCell id="14" value="Ethereum" style="swimlane;" vertex="1" parent="1">
                    <mxGeometry x="680" y="180" width="180" height="320" as="geometry"/>
                </mxCell>
                <mxCell id="18" value="Ticketing App" style="rounded=0;whiteSpace=wrap;html=1;" vertex="1" parent="14">
                    <mxGeometry x="27" y="140" width="120" height="60" as="geometry"/>
                </mxCell>
                <mxCell id="23" style="edgeStyle=orthogonalEdgeStyle;html=1;entryX=0.5;entryY=0;entryDx=0;entryDy=0;exitX=0.45;exitY=1.033;exitDx=0;exitDy=0;exitPerimeter=0;startArrow=classic;startFill=1;" edge="1" parent="1" source="21" target="13">
                    <mxGeometry relative="1" as="geometry"/>
                </mxCell>
                <mxCell id="20" value="Client" style="swimlane;" vertex="1" parent="1">
                    <mxGeometry x="200" y="180" width="400" height="130" as="geometry"/>
                </mxCell>
                <mxCell id="24" style="edgeStyle=orthogonalEdgeStyle;html=1;entryX=0;entryY=0.5;entryDx=0;entryDy=0;" edge="1" parent="20" source="21" target="19">
                    <mxGeometry relative="1" as="geometry"/>
                </mxCell>
                <mxCell id="21" value="Browser" style="rounded=0;whiteSpace=wrap;html=1;" vertex="1" parent="20">
                    <mxGeometry x="50" y="40" width="120" height="60" as="geometry"/>
                </mxCell>
                <mxCell id="19" value="Wallet" style="rounded=0;whiteSpace=wrap;html=1;" vertex="1" parent="20">
                    <mxGeometry x="230" y="40" width="120" height="60" as="geometry"/>
                </mxCell>
                <mxCell id="34" value="&lt;span style=&quot;text-align: left&quot;&gt;web3.js&lt;br&gt;&lt;/span&gt;" style="text;html=1;strokeColor=none;fillColor=none;align=center;verticalAlign=middle;whiteSpace=wrap;rounded=0;" vertex="1" parent="20">
                    <mxGeometry x="160" y="30" width="80" height="50" as="geometry"/>
                </mxCell>
                <mxCell id="26" style="edgeStyle=orthogonalEdgeStyle;html=1;entryX=0.5;entryY=0;entryDx=0;entryDy=0;" edge="1" parent="1" source="19" target="18">
                    <mxGeometry relative="1" as="geometry"/>
                </mxCell>
                <mxCell id="27" style="edgeStyle=orthogonalEdgeStyle;html=1;entryX=1;entryY=0.5;entryDx=0;entryDy=0;exitX=0.5;exitY=1;exitDx=0;exitDy=0;startArrow=classic;startFill=1;" edge="1" parent="1" source="18" target="13">
                    <mxGeometry relative="1" as="geometry"/>
                </mxCell>
                <mxCell id="28" value="GET&lt;br&gt;&lt;div style=&quot;text-align: left&quot;&gt;&lt;span&gt;- Events&lt;/span&gt;&lt;/div&gt;&lt;span&gt;&lt;div style=&quot;text-align: left&quot;&gt;&lt;span&gt;- Tickets&lt;/span&gt;&lt;/div&gt;&lt;/span&gt;" style="text;html=1;strokeColor=none;fillColor=none;align=center;verticalAlign=middle;whiteSpace=wrap;rounded=0;" vertex="1" parent="1">
                    <mxGeometry x="600" y="440" width="90" height="50" as="geometry"/>
                </mxCell>
                <mxCell id="33" value="&lt;span style=&quot;text-align: left&quot;&gt;PAY/SELL&lt;br&gt;&lt;div style=&quot;text-align: left&quot;&gt;&lt;span style=&quot;text-align: center&quot;&gt;- Tickets&lt;/span&gt;&lt;/div&gt;&lt;/span&gt;&lt;span&gt;CREATE/DELETE&lt;br&gt;&lt;div style=&quot;text-align: left&quot;&gt;&lt;span&gt;- Events&lt;/span&gt;&lt;/div&gt;&lt;/span&gt;" style="text;html=1;strokeColor=none;fillColor=none;align=center;verticalAlign=middle;whiteSpace=wrap;rounded=0;" vertex="1" parent="1">
                    <mxGeometry x="600" y="200" width="80" height="50" as="geometry"/>
                </mxCell>
                <mxCell id="hqSYZPeVKr9ppMvlzupd-35" value="Chainlink" style="swimlane;" vertex="1" parent="1">
                    <mxGeometry x="910" y="180" width="180" height="320" as="geometry"/>
                </mxCell>
                <mxCell id="hqSYZPeVKr9ppMvlzupd-36" value="Oracle" style="rounded=0;whiteSpace=wrap;html=1;" vertex="1" parent="hqSYZPeVKr9ppMvlzupd-35">
                    <mxGeometry x="27" y="140" width="120" height="60" as="geometry"/>
                </mxCell>
                <mxCell id="hqSYZPeVKr9ppMvlzupd-37" style="edgeStyle=orthogonalEdgeStyle;html=1;startArrow=classic;startFill=1;" edge="1" parent="1" source="18" target="hqSYZPeVKr9ppMvlzupd-36">
                    <mxGeometry relative="1" as="geometry"/>
                </mxCell>
            </root>
        </mxGraphModel>
    </diagram>
    <diagram id="ByMJ97AsLJqCpdaiBLwR" name="ethereum_app">
        <mxGraphModel dx="684" dy="291" grid="1" gridSize="10" guides="1" tooltips="1" connect="1" arrows="1" fold="1" page="1" pageScale="1" pageWidth="827" pageHeight="1169" math="0" shadow="0">
            <root>
                <mxCell id="SpSei3KZfe_me19z_yHL-0"/>
                <mxCell id="SpSei3KZfe_me19z_yHL-1" parent="SpSei3KZfe_me19z_yHL-0"/>
                <mxCell id="SpSei3KZfe_me19z_yHL-5" style="edgeStyle=orthogonalEdgeStyle;html=1;entryX=0.5;entryY=0;entryDx=0;entryDy=0;startArrow=none;startFill=0;" edge="1" parent="SpSei3KZfe_me19z_yHL-1" source="SpSei3KZfe_me19z_yHL-2" target="SpSei3KZfe_me19z_yHL-3">
                    <mxGeometry relative="1" as="geometry"/>
                </mxCell>
                <mxCell id="SpSei3KZfe_me19z_yHL-2" value="Event&lt;br&gt;&amp;lt;&amp;lt;Contract&amp;gt;&amp;gt;" style="rounded=0;whiteSpace=wrap;html=1;" vertex="1" parent="SpSei3KZfe_me19z_yHL-1">
                    <mxGeometry x="350" y="322.5" width="120" height="60" as="geometry"/>
                </mxCell>
                <mxCell id="SpSei3KZfe_me19z_yHL-3" value="Ticket&lt;br&gt;&amp;lt;&amp;lt;Token&amp;gt;&amp;gt;" style="rounded=0;whiteSpace=wrap;html=1;" vertex="1" parent="SpSei3KZfe_me19z_yHL-1">
                    <mxGeometry x="350" y="473.75" width="120" height="60" as="geometry"/>
                </mxCell>
                <mxCell id="SpSei3KZfe_me19z_yHL-10" value="ERC777 - Open Zeppelin app&lt;br&gt;&lt;br&gt;&lt;div style=&quot;text-align: left&quot;&gt;&lt;span&gt;Contains:&lt;/span&gt;&lt;/div&gt;&lt;div style=&quot;text-align: left&quot;&gt;&lt;span&gt;- ticket previous owners&lt;/span&gt;&lt;/div&gt;&lt;div style=&quot;text-align: left&quot;&gt;&lt;span&gt;- ticket current owner&lt;/span&gt;&lt;/div&gt;&lt;div style=&quot;text-align: left&quot;&gt;&lt;span&gt;- ticket cost&lt;/span&gt;&lt;/div&gt;&lt;div style=&quot;text-align: left&quot;&gt;&lt;span&gt;- is_to_sell&lt;/span&gt;&lt;/div&gt;&lt;div style=&quot;text-align: left&quot;&gt;&lt;span&gt;- type&lt;/span&gt;&lt;/div&gt;&lt;div style=&quot;text-align: left&quot;&gt;&lt;span&gt;- price&lt;/span&gt;&lt;/div&gt;" style="text;html=1;strokeColor=none;fillColor=none;align=center;verticalAlign=middle;whiteSpace=wrap;rounded=0;" vertex="1" parent="SpSei3KZfe_me19z_yHL-1">
                    <mxGeometry x="480" y="430" width="180" height="112.5" as="geometry"/>
                </mxCell>
                <mxCell id="SpSei3KZfe_me19z_yHL-12" style="edgeStyle=orthogonalEdgeStyle;html=1;entryX=0.5;entryY=1;entryDx=0;entryDy=0;startArrow=none;startFill=0;exitX=0.5;exitY=0;exitDx=0;exitDy=0;" edge="1" parent="SpSei3KZfe_me19z_yHL-1" source="SpSei3KZfe_me19z_yHL-11" target="SpSei3KZfe_me19z_yHL-3">
                    <mxGeometry relative="1" as="geometry"/>
                </mxCell>
                <mxCell id="SpSei3KZfe_me19z_yHL-11" value="Ticket&lt;br&gt;type A&lt;br&gt;&amp;lt;&amp;lt;Token&amp;gt;&amp;gt;" style="rounded=0;whiteSpace=wrap;html=1;" vertex="1" parent="SpSei3KZfe_me19z_yHL-1">
                    <mxGeometry x="210" y="600" width="120" height="60" as="geometry"/>
                </mxCell>
                <mxCell id="SpSei3KZfe_me19z_yHL-14" style="edgeStyle=orthogonalEdgeStyle;html=1;startArrow=none;startFill=0;entryX=0.5;entryY=1;entryDx=0;entryDy=0;" edge="1" parent="SpSei3KZfe_me19z_yHL-1" source="SpSei3KZfe_me19z_yHL-13" target="SpSei3KZfe_me19z_yHL-3">
                    <mxGeometry relative="1" as="geometry">
                        <mxPoint x="410" y="560" as="targetPoint"/>
                    </mxGeometry>
                </mxCell>
                <mxCell id="SpSei3KZfe_me19z_yHL-13" value="Ticket&lt;br&gt;type B&lt;br&gt;&amp;lt;&amp;lt;Token&amp;gt;&amp;gt;" style="rounded=0;whiteSpace=wrap;html=1;" vertex="1" parent="SpSei3KZfe_me19z_yHL-1">
                    <mxGeometry x="350" y="600" width="120" height="60" as="geometry"/>
                </mxCell>
                <mxCell id="SpSei3KZfe_me19z_yHL-16" style="edgeStyle=orthogonalEdgeStyle;html=1;entryX=0.5;entryY=1;entryDx=0;entryDy=0;startArrow=none;startFill=0;exitX=0.5;exitY=0;exitDx=0;exitDy=0;" edge="1" parent="SpSei3KZfe_me19z_yHL-1" source="SpSei3KZfe_me19z_yHL-15" target="SpSei3KZfe_me19z_yHL-3">
                    <mxGeometry relative="1" as="geometry"/>
                </mxCell>
                <mxCell id="SpSei3KZfe_me19z_yHL-15" value="..." style="rounded=0;whiteSpace=wrap;html=1;" vertex="1" parent="SpSei3KZfe_me19z_yHL-1">
                    <mxGeometry x="490" y="600" width="120" height="60" as="geometry"/>
                </mxCell>
                <mxCell id="AArVwXRIVM7owpbq333O-0" value="&lt;div&gt;&lt;span&gt;Contains:&lt;/span&gt;&lt;/div&gt;&lt;div&gt;&lt;span&gt;- event name&lt;/span&gt;&lt;/div&gt;&lt;div&gt;&lt;span&gt;- event creator&lt;/span&gt;&lt;/div&gt;&lt;div&gt;&lt;span&gt;- event address&lt;/span&gt;&lt;/div&gt;&lt;div&gt;&lt;span&gt;- event description&lt;/span&gt;&lt;/div&gt;&lt;div&gt;&lt;span&gt;- event time&lt;/span&gt;&lt;/div&gt;&lt;div&gt;&lt;span&gt;- tickets&lt;/span&gt;&lt;/div&gt;" style="text;html=1;strokeColor=none;fillColor=none;align=left;verticalAlign=middle;whiteSpace=wrap;rounded=0;" vertex="1" parent="SpSei3KZfe_me19z_yHL-1">
                    <mxGeometry x="210" y="296.25" width="130" height="112.5" as="geometry"/>
                </mxCell>
            </root>
        </mxGraphModel>
    </diagram>
    <diagram id="6OMefph9_-g4TDpPQbYK" name="swimlane">
        <mxGraphModel dx="1026" dy="436" grid="1" gridSize="10" guides="1" tooltips="1" connect="1" arrows="1" fold="1" page="1" pageScale="1" pageWidth="827" pageHeight="1169" math="0" shadow="0">
            <root>
                <mxCell id="u7Y_KYSsKaPKfX_ig7lM-0"/>
                <mxCell id="u7Y_KYSsKaPKfX_ig7lM-1" parent="u7Y_KYSsKaPKfX_ig7lM-0"/>
                <mxCell id="u7Y_KYSsKaPKfX_ig7lM-2" value="Event Creation" style="swimlane;childLayout=stackLayout;resizeParent=1;resizeParentMax=0;horizontal=1;startSize=20;horizontalStack=0;" vertex="1" parent="u7Y_KYSsKaPKfX_ig7lM-1">
                    <mxGeometry x="40" y="40" width="520" height="500" as="geometry"/>
                </mxCell>
                <mxCell id="7UhMx_ywJLXMylz4loc8-0" value="User (Organizer)" style="swimlane;startSize=20;horizontal=0;" vertex="1" parent="u7Y_KYSsKaPKfX_ig7lM-2">
                    <mxGeometry y="20" width="520" height="120" as="geometry"/>
                </mxCell>
                <mxCell id="Dfp0_MJa2E_befyMg2mi-3" value="User wants to create an event&lt;span style=&quot;color: rgba(0 , 0 , 0 , 0) ; font-family: monospace ; font-size: 0px&quot;&gt;%3CmxGraphModel%3E%3Croot%3E%3CmxCell%20id%3D%220%22%2F%3E%3CmxCell%20id%3D%221%22%20parent%3D%220%22%2F%3E%3CmxCell%20id%3D%222%22%20value%3D%22Client%22%20style%3D%22swimlane%3BstartSize%3D20%3Bhorizontal%3D0%3B%22%20vertex%3D%221%22%20parent%3D%221%22%3E%3CmxGeometry%20x%3D%22170%22%20y%3D%22230%22%20width%3D%22480%22%20height%3D%22120%22%20as%3D%22geometry%22%2F%3E%3C%2FmxCell%3E%3C%2Froot%3E%3C%2FmxGraphModel%3E&lt;/span&gt;" style="rounded=0;whiteSpace=wrap;html=1;" vertex="1" parent="7UhMx_ywJLXMylz4loc8-0">
                    <mxGeometry x="60" y="30" width="120" height="60" as="geometry"/>
                </mxCell>
                <mxCell id="u7Y_KYSsKaPKfX_ig7lM-3" value="Client" style="swimlane;startSize=20;horizontal=0;" vertex="1" parent="u7Y_KYSsKaPKfX_ig7lM-2">
                    <mxGeometry y="140" width="520" height="120" as="geometry"/>
                </mxCell>
                <mxCell id="qDwuF02dO9iy7iWTgEh9-3" style="edgeStyle=orthogonalEdgeStyle;html=1;entryX=0;entryY=0.5;entryDx=0;entryDy=0;startArrow=none;startFill=0;" edge="1" parent="u7Y_KYSsKaPKfX_ig7lM-3" source="qDwuF02dO9iy7iWTgEh9-0" target="qDwuF02dO9iy7iWTgEh9-2">
                    <mxGeometry relative="1" as="geometry"/>
                </mxCell>
                <mxCell id="qDwuF02dO9iy7iWTgEh9-0" value="User set event information&lt;span style=&quot;color: rgba(0 , 0 , 0 , 0) ; font-family: monospace ; font-size: 0px&quot;&gt;%3CmxGraphModel%3E%3Croot%3E%3CmxCell%20id%3D%220%22%2F%3E%3CmxCell%20id%3D%221%22%20parent%3D%220%22%2F%3E%3CmxCell%20id%3D%222%22%20value%3D%22Client%22%20style%3D%22swimlane%3BstartSize%3D20%3Bhorizontal%3D0%3B%22%20vertex%3D%221%22%20parent%3D%221%22%3E%3CmxGeometry%20x%3D%22170%22%20y%3D%22230%22%20width%3D%22480%22%20height%3D%22120%22%20as%3D%22geometry%22%2F%3E%3C%2FmxCell%3E%3C%2Froot%3E%3C%2FmxGraphModel%3E&lt;/span&gt;" style="rounded=0;whiteSpace=wrap;html=1;" vertex="1" parent="u7Y_KYSsKaPKfX_ig7lM-3">
                    <mxGeometry x="220" y="30" width="120" height="60" as="geometry"/>
                </mxCell>
                <mxCell id="qDwuF02dO9iy7iWTgEh9-2" value="User interacts with Wallet&lt;span style=&quot;color: rgba(0 , 0 , 0 , 0) ; font-family: monospace ; font-size: 0px&quot;&gt;%3CmxGraphModel%3E%3Croot%3E%3CmxCell%20id%3D%220%22%2F%3E%3CmxCell%20id%3D%221%22%20parent%3D%220%22%2F%3E%3CmxCell%20id%3D%222%22%20value%3D%22User%20set%20event%20information%26lt%3Bspan%20style%3D%26quot%3Bcolor%3A%20rgba(0%20%2C%200%20%2C%200%20%2C%200)%20%3B%20font-family%3A%20monospace%20%3B%20font-size%3A%200px%26quot%3B%26gt%3B%253CmxGraphModel%253E%253Croot%253E%253CmxCell%2520id%253D%25220%2522%252F%253E%253CmxCell%2520id%253D%25221%2522%2520parent%253D%25220%2522%252F%253E%253CmxCell%2520id%253D%25222%2522%2520value%253D%2522Client%2522%2520style%253D%2522swimlane%253BstartSize%253D20%253Bhorizontal%253D0%253B%2522%2520vertex%253D%25221%2522%2520parent%253D%25221%2522%253E%253CmxGeometry%2520x%253D%2522170%2522%2520y%253D%2522230%2522%2520width%253D%2522480%2522%2520height%253D%2522120%2522%2520as%253D%2522geometry%2522%252F%253E%253C%252FmxCell%253E%253C%252Froot%253E%253C%252FmxGraphModel%253E%26lt%3B%2Fspan%26gt%3B%22%20style%3D%22rounded%3D0%3BwhiteSpace%3Dwrap%3Bhtml%3D1%3B%22%20vertex%3D%221%22%20parent%3D%221%22%3E%3CmxGeometry%20x%3D%22260%22%20y%3D%22210%22%20width%3D%22120%22%20height%3D%2260%22%20as%3D%22geometry%22%2F%3E%3C%2FmxCell%3E%3C%2Froot%3E%3C%2FmxGraphModel%3E&lt;/span&gt;" style="rounded=0;whiteSpace=wrap;html=1;" vertex="1" parent="u7Y_KYSsKaPKfX_ig7lM-3">
                    <mxGeometry x="374" y="30" width="120" height="60" as="geometry"/>
                </mxCell>
                <mxCell id="u7Y_KYSsKaPKfX_ig7lM-4" value="Web Server" style="swimlane;startSize=20;horizontal=0;" vertex="1" parent="u7Y_KYSsKaPKfX_ig7lM-2">
                    <mxGeometry y="260" width="520" height="120" as="geometry"/>
                </mxCell>
                <mxCell id="Dfp0_MJa2E_befyMg2mi-4" value="User get to client&lt;span style=&quot;color: rgba(0 , 0 , 0 , 0) ; font-family: monospace ; font-size: 0px&quot;&gt;%3CmxGraphModel%3E%3Croot%3E%3CmxCell%20id%3D%220%22%2F%3E%3CmxCell%20id%3D%221%22%20parent%3D%220%22%2F%3E%3CmxCell%20id%3D%222%22%20value%3D%22Client%22%20style%3D%22swimlane%3BstartSize%3D20%3Bhorizontal%3D0%3B%22%20vertex%3D%221%22%20parent%3D%221%22%3E%3CmxGeometry%20x%3D%22170%22%20y%3D%22230%22%20width%3D%22480%22%20height%3D%22120%22%20as%3D%22geometry%22%2F%3E%3C%2FmxCell%3E%3C%2Froot%3E%3C%2FmxGraphModel%3E&lt;/span&gt;" style="rounded=0;whiteSpace=wrap;html=1;" vertex="1" parent="u7Y_KYSsKaPKfX_ig7lM-4">
                    <mxGeometry x="60" y="30" width="120" height="60" as="geometry"/>
                </mxCell>
                <mxCell id="u7Y_KYSsKaPKfX_ig7lM-5" value="Ethereum" style="swimlane;startSize=20;horizontal=0;" vertex="1" parent="u7Y_KYSsKaPKfX_ig7lM-2">
                    <mxGeometry y="380" width="520" height="120" as="geometry"/>
                </mxCell>
                <mxCell id="qDwuF02dO9iy7iWTgEh9-4" value="Event gets created with token pool" style="rounded=0;whiteSpace=wrap;html=1;" vertex="1" parent="u7Y_KYSsKaPKfX_ig7lM-5">
                    <mxGeometry x="374" y="30" width="120" height="60" as="geometry"/>
                </mxCell>
                <mxCell id="Dfp0_MJa2E_befyMg2mi-5" style="edgeStyle=orthogonalEdgeStyle;html=1;entryX=0.5;entryY=0;entryDx=0;entryDy=0;startArrow=none;startFill=0;" edge="1" parent="u7Y_KYSsKaPKfX_ig7lM-2" source="Dfp0_MJa2E_befyMg2mi-3" target="Dfp0_MJa2E_befyMg2mi-4">
                    <mxGeometry relative="1" as="geometry"/>
                </mxCell>
                <mxCell id="qDwuF02dO9iy7iWTgEh9-1" style="edgeStyle=orthogonalEdgeStyle;html=1;entryX=0;entryY=0.5;entryDx=0;entryDy=0;startArrow=none;startFill=0;" edge="1" parent="u7Y_KYSsKaPKfX_ig7lM-2" source="Dfp0_MJa2E_befyMg2mi-4" target="qDwuF02dO9iy7iWTgEh9-0">
                    <mxGeometry relative="1" as="geometry"/>
                </mxCell>
                <mxCell id="qDwuF02dO9iy7iWTgEh9-5" style="edgeStyle=orthogonalEdgeStyle;html=1;entryX=0.5;entryY=0;entryDx=0;entryDy=0;startArrow=none;startFill=0;" edge="1" parent="u7Y_KYSsKaPKfX_ig7lM-2" source="qDwuF02dO9iy7iWTgEh9-2" target="qDwuF02dO9iy7iWTgEh9-4">
                    <mxGeometry relative="1" as="geometry"/>
                </mxCell>
                <mxCell id="qDwuF02dO9iy7iWTgEh9-7" value="Ticket buy" style="swimlane;childLayout=stackLayout;resizeParent=1;resizeParentMax=0;horizontal=1;startSize=20;horizontalStack=0;" vertex="1" parent="u7Y_KYSsKaPKfX_ig7lM-1">
                    <mxGeometry x="40" y="600" width="1310" height="700" as="geometry"/>
                </mxCell>
                <mxCell id="Qn9xAzBqLyEOiVE6R0Uv-1" value="User (Organizer)" style="swimlane;startSize=20;horizontal=0;" vertex="1" parent="qDwuF02dO9iy7iWTgEh9-7">
                    <mxGeometry y="20" width="1310" height="120" as="geometry"/>
                </mxCell>
                <mxCell id="Qn9xAzBqLyEOiVE6R0Uv-2" value="User receives payment on his wallet" style="rounded=0;whiteSpace=wrap;html=1;" vertex="1" parent="Qn9xAzBqLyEOiVE6R0Uv-1">
                    <mxGeometry x="960" y="30" width="120" height="60" as="geometry"/>
                </mxCell>
                <mxCell id="qDwuF02dO9iy7iWTgEh9-8" value="User (Participant)" style="swimlane;startSize=20;horizontal=0;" vertex="1" parent="qDwuF02dO9iy7iWTgEh9-7">
                    <mxGeometry y="140" width="1310" height="120" as="geometry"/>
                </mxCell>
                <mxCell id="qDwuF02dO9iy7iWTgEh9-9" value="User wants to buy a ticket for an event&lt;span style=&quot;color: rgba(0 , 0 , 0 , 0) ; font-family: monospace ; font-size: 0px&quot;&gt;%3CmxGraphModel%3E%3Croot%3E%3CmxCell%20id%3D%220%22%2F%3E%3CmxCell%20id%3D%221%22%20parent%3D%220%22%2F%3E%3CmxCell%20id%3D%222%22%20value%3D%22Client%22%20style%3D%22swimlane%3BstartSize%3D20%3Bhorizontal%3D0%3B%22%20vertex%3D%221%22%20parent%3D%221%22%3E%3CmxGeometry%20x%3D%22170%22%20y%3D%22230%22%20width%3D%22480%22%20height%3D%22120%22%20as%3D%22geometry%22%2F%3E%3C%2FmxCell%3E%3C%2Froot%3E%3C%2FmxGraphModel%3E&lt;/span&gt;" style="rounded=0;whiteSpace=wrap;html=1;" vertex="1" parent="qDwuF02dO9iy7iWTgEh9-8">
                    <mxGeometry x="60" y="30" width="120" height="60" as="geometry"/>
                </mxCell>
                <mxCell id="qDwuF02dO9iy7iWTgEh9-10" value="Client" style="swimlane;startSize=20;horizontal=0;" vertex="1" parent="qDwuF02dO9iy7iWTgEh9-7">
                    <mxGeometry y="260" width="1310" height="120" as="geometry"/>
                </mxCell>
                <mxCell id="qDwuF02dO9iy7iWTgEh9-26" style="edgeStyle=orthogonalEdgeStyle;html=1;entryX=0;entryY=0.5;entryDx=0;entryDy=0;startArrow=none;startFill=0;" edge="1" parent="qDwuF02dO9iy7iWTgEh9-10" source="qDwuF02dO9iy7iWTgEh9-13" target="qDwuF02dO9iy7iWTgEh9-25">
                    <mxGeometry relative="1" as="geometry"/>
                </mxCell>
                <mxCell id="qDwuF02dO9iy7iWTgEh9-13" value="User select the event the wants to buy" style="rounded=0;whiteSpace=wrap;html=1;" vertex="1" parent="qDwuF02dO9iy7iWTgEh9-10">
                    <mxGeometry x="374" y="30" width="120" height="60" as="geometry"/>
                </mxCell>
                <mxCell id="qDwuF02dO9iy7iWTgEh9-25" value="User interacts with Wallet&lt;span style=&quot;color: rgba(0 , 0 , 0 , 0) ; font-family: monospace ; font-size: 0px&quot;&gt;%3CmxGraphModel%3E%3Croot%3E%3CmxCell%20id%3D%220%22%2F%3E%3CmxCell%20id%3D%221%22%20parent%3D%220%22%2F%3E%3CmxCell%20id%3D%222%22%20value%3D%22User%20set%20event%20information%26lt%3Bspan%20style%3D%26quot%3Bcolor%3A%20rgba(0%20%2C%200%20%2C%200%20%2C%200)%20%3B%20font-family%3A%20monospace%20%3B%20font-size%3A%200px%26quot%3B%26gt%3B%253CmxGraphModel%253E%253Croot%253E%253CmxCell%2520id%253D%25220%2522%252F%253E%253CmxCell%2520id%253D%25221%2522%2520parent%253D%25220%2522%252F%253E%253CmxCell%2520id%253D%25222%2522%2520value%253D%2522Client%2522%2520style%253D%2522swimlane%253BstartSize%253D20%253Bhorizontal%253D0%253B%2522%2520vertex%253D%25221%2522%2520parent%253D%25221%2522%253E%253CmxGeometry%2520x%253D%2522170%2522%2520y%253D%2522230%2522%2520width%253D%2522480%2522%2520height%253D%2522120%2522%2520as%253D%2522geometry%2522%252F%253E%253C%252FmxCell%253E%253C%252Froot%253E%253C%252FmxGraphModel%253E%26lt%3B%2Fspan%26gt%3B%22%20style%3D%22rounded%3D0%3BwhiteSpace%3Dwrap%3Bhtml%3D1%3B%22%20vertex%3D%221%22%20parent%3D%221%22%3E%3CmxGeometry%20x%3D%22260%22%20y%3D%22210%22%20width%3D%22120%22%20height%3D%2260%22%20as%3D%22geometry%22%2F%3E%3C%2FmxCell%3E%3C%2Froot%3E%3C%2FmxGraphModel%3E&lt;/span&gt;" style="rounded=0;whiteSpace=wrap;html=1;" vertex="1" parent="qDwuF02dO9iy7iWTgEh9-10">
                    <mxGeometry x="550" y="30" width="120" height="60" as="geometry"/>
                </mxCell>
                <mxCell id="Qn9xAzBqLyEOiVE6R0Uv-10" value="User is warned that transaction is failed" style="rounded=0;whiteSpace=wrap;html=1;" vertex="1" parent="qDwuF02dO9iy7iWTgEh9-10">
                    <mxGeometry x="810" y="30" width="120" height="60" as="geometry"/>
                </mxCell>
                <mxCell id="Qn9xAzBqLyEOiVE6R0Uv-12" value="User is informed that transaction is successful" style="rounded=0;whiteSpace=wrap;html=1;" vertex="1" parent="qDwuF02dO9iy7iWTgEh9-10">
                    <mxGeometry x="1130" y="30" width="120" height="60" as="geometry"/>
                </mxCell>
                <mxCell id="qDwuF02dO9iy7iWTgEh9-14" value="Web Server" style="swimlane;startSize=20;horizontal=0;" vertex="1" parent="qDwuF02dO9iy7iWTgEh9-7">
                    <mxGeometry y="380" width="1310" height="120" as="geometry"/>
                </mxCell>
                <mxCell id="qDwuF02dO9iy7iWTgEh9-15" value="User get to client&lt;span style=&quot;color: rgba(0 , 0 , 0 , 0) ; font-family: monospace ; font-size: 0px&quot;&gt;%3CmxGraphModel%3E%3Croot%3E%3CmxCell%20id%3D%220%22%2F%3E%3CmxCell%20id%3D%221%22%20parent%3D%220%22%2F%3E%3CmxCell%20id%3D%222%22%20value%3D%22Client%22%20style%3D%22swimlane%3BstartSize%3D20%3Bhorizontal%3D0%3B%22%20vertex%3D%221%22%20parent%3D%221%22%3E%3CmxGeometry%20x%3D%22170%22%20y%3D%22230%22%20width%3D%22480%22%20height%3D%22120%22%20as%3D%22geometry%22%2F%3E%3C%2FmxCell%3E%3C%2Froot%3E%3C%2FmxGraphModel%3E&lt;/span&gt;" style="rounded=0;whiteSpace=wrap;html=1;" vertex="1" parent="qDwuF02dO9iy7iWTgEh9-14">
                    <mxGeometry x="60" y="30" width="120" height="60" as="geometry"/>
                </mxCell>
                <mxCell id="qDwuF02dO9iy7iWTgEh9-16" value="Ethereum" style="swimlane;startSize=20;horizontal=0;" vertex="1" parent="qDwuF02dO9iy7iWTgEh9-7">
                    <mxGeometry y="500" width="1310" height="200" as="geometry"/>
                </mxCell>
                <mxCell id="Qn9xAzBqLyEOiVE6R0Uv-8" value="Transaction refused" style="rounded=0;whiteSpace=wrap;html=1;" vertex="1" parent="qDwuF02dO9iy7iWTgEh9-16">
                    <mxGeometry x="810" y="9" width="120" height="60" as="geometry"/>
                </mxCell>
                <mxCell id="qDwuF02dO9iy7iWTgEh9-12" value="Client gets events" style="rounded=0;whiteSpace=wrap;html=1;" vertex="1" parent="qDwuF02dO9iy7iWTgEh9-16">
                    <mxGeometry x="220" y="110" width="120" height="60" as="geometry"/>
                </mxCell>
                <mxCell id="Qn9xAzBqLyEOiVE6R0Uv-4" value="User pays for the ticket" style="rounded=0;whiteSpace=wrap;html=1;" vertex="1" parent="qDwuF02dO9iy7iWTgEh9-16">
                    <mxGeometry x="660" y="110" width="120" height="60" as="geometry"/>
                </mxCell>
                <mxCell id="qDwuF02dO9iy7iWTgEh9-27" value="User gets a token for the ticket type for the event he wants" style="rounded=0;whiteSpace=wrap;html=1;" vertex="1" parent="qDwuF02dO9iy7iWTgEh9-16">
                    <mxGeometry x="960" y="110" width="120" height="60" as="geometry"/>
                </mxCell>
                <mxCell id="Qn9xAzBqLyEOiVE6R0Uv-5" value="Y" style="edgeStyle=orthogonalEdgeStyle;html=1;entryX=0;entryY=0.5;entryDx=0;entryDy=0;startArrow=none;startFill=0;" edge="1" parent="qDwuF02dO9iy7iWTgEh9-16" source="Qn9xAzBqLyEOiVE6R0Uv-6" target="qDwuF02dO9iy7iWTgEh9-27">
                    <mxGeometry relative="1" as="geometry"/>
                </mxCell>
                <mxCell id="Qn9xAzBqLyEOiVE6R0Uv-7" value="" style="edgeStyle=orthogonalEdgeStyle;html=1;entryX=0;entryY=0.5;entryDx=0;entryDy=0;startArrow=none;startFill=0;endArrow=classic;endFill=1;" edge="1" parent="qDwuF02dO9iy7iWTgEh9-16" source="Qn9xAzBqLyEOiVE6R0Uv-4" target="Qn9xAzBqLyEOiVE6R0Uv-6">
                    <mxGeometry relative="1" as="geometry">
                        <mxPoint x="780" y="140" as="sourcePoint"/>
                        <mxPoint x="960" y="140" as="targetPoint"/>
                    </mxGeometry>
                </mxCell>
                <mxCell id="Qn9xAzBqLyEOiVE6R0Uv-9" value="N" style="edgeStyle=orthogonalEdgeStyle;html=1;entryX=0.5;entryY=1;entryDx=0;entryDy=0;startArrow=none;startFill=0;endArrow=classic;endFill=1;" edge="1" parent="qDwuF02dO9iy7iWTgEh9-16" source="Qn9xAzBqLyEOiVE6R0Uv-6" target="Qn9xAzBqLyEOiVE6R0Uv-8">
                    <mxGeometry relative="1" as="geometry"/>
                </mxCell>
                <mxCell id="Qn9xAzBqLyEOiVE6R0Uv-6" value="User has enough money" style="rhombus;whiteSpace=wrap;html=1;" vertex="1" parent="qDwuF02dO9iy7iWTgEh9-16">
                    <mxGeometry x="830" y="100" width="80" height="80" as="geometry"/>
                </mxCell>
                <mxCell id="qDwuF02dO9iy7iWTgEh9-18" style="edgeStyle=orthogonalEdgeStyle;html=1;entryX=0.5;entryY=0;entryDx=0;entryDy=0;startArrow=none;startFill=0;" edge="1" parent="qDwuF02dO9iy7iWTgEh9-7" source="qDwuF02dO9iy7iWTgEh9-9" target="qDwuF02dO9iy7iWTgEh9-15">
                    <mxGeometry relative="1" as="geometry"/>
                </mxCell>
                <mxCell id="qDwuF02dO9iy7iWTgEh9-19" style="edgeStyle=orthogonalEdgeStyle;html=1;entryX=0;entryY=0.5;entryDx=0;entryDy=0;startArrow=none;startFill=0;" edge="1" parent="qDwuF02dO9iy7iWTgEh9-7" source="qDwuF02dO9iy7iWTgEh9-15" target="qDwuF02dO9iy7iWTgEh9-12">
                    <mxGeometry relative="1" as="geometry"/>
                </mxCell>
                <mxCell id="qDwuF02dO9iy7iWTgEh9-11" style="edgeStyle=orthogonalEdgeStyle;html=1;entryX=0;entryY=0.5;entryDx=0;entryDy=0;startArrow=none;startFill=0;" edge="1" parent="qDwuF02dO9iy7iWTgEh9-7" source="qDwuF02dO9iy7iWTgEh9-12" target="qDwuF02dO9iy7iWTgEh9-13">
                    <mxGeometry relative="1" as="geometry"/>
                </mxCell>
                <mxCell id="Qn9xAzBqLyEOiVE6R0Uv-0" style="edgeStyle=orthogonalEdgeStyle;html=1;entryX=0;entryY=0.5;entryDx=0;entryDy=0;startArrow=none;startFill=0;" edge="1" parent="qDwuF02dO9iy7iWTgEh9-7" source="qDwuF02dO9iy7iWTgEh9-25" target="Qn9xAzBqLyEOiVE6R0Uv-4">
                    <mxGeometry relative="1" as="geometry"/>
                </mxCell>
                <mxCell id="Qn9xAzBqLyEOiVE6R0Uv-3" style="edgeStyle=orthogonalEdgeStyle;html=1;entryX=0.5;entryY=1;entryDx=0;entryDy=0;startArrow=none;startFill=0;exitX=0.5;exitY=0;exitDx=0;exitDy=0;" edge="1" parent="qDwuF02dO9iy7iWTgEh9-7" source="qDwuF02dO9iy7iWTgEh9-27" target="Qn9xAzBqLyEOiVE6R0Uv-2">
                    <mxGeometry relative="1" as="geometry"/>
                </mxCell>
                <mxCell id="Qn9xAzBqLyEOiVE6R0Uv-11" style="edgeStyle=orthogonalEdgeStyle;html=1;entryX=0.5;entryY=1;entryDx=0;entryDy=0;startArrow=none;startFill=0;endArrow=classic;endFill=1;" edge="1" parent="qDwuF02dO9iy7iWTgEh9-7" source="Qn9xAzBqLyEOiVE6R0Uv-8" target="Qn9xAzBqLyEOiVE6R0Uv-10">
                    <mxGeometry relative="1" as="geometry"/>
                </mxCell>
                <mxCell id="Qn9xAzBqLyEOiVE6R0Uv-13" style="edgeStyle=orthogonalEdgeStyle;html=1;entryX=0.5;entryY=1;entryDx=0;entryDy=0;startArrow=none;startFill=0;endArrow=classic;endFill=1;" edge="1" parent="qDwuF02dO9iy7iWTgEh9-7" source="qDwuF02dO9iy7iWTgEh9-27" target="Qn9xAzBqLyEOiVE6R0Uv-12">
                    <mxGeometry relative="1" as="geometry"/>
                </mxCell>
            </root>
        </mxGraphModel>
    </diagram>
</mxfile>